<svg width="33" height="33" viewBox="0 0 33 33" fill="none" xmlns="http://www.w3.org/2000/svg">
<rect width="32" height="32" transform="translate(0.5 0.5)" fill="white"/>
<path d="M12.5004 17.8335C11.6204 18.2735 10.887 18.9268 10.3404 19.7402C10.0337 20.2068 10.0337 20.7935 10.3404 21.2602C10.887 22.0735 11.6204 22.7268 12.5004 23.1668" stroke="#5454D4" stroke-width="2" stroke-linecap="round" stroke-linejoin="round"/>
<path d="M20.7803 17.8335C21.6603 18.2735 22.3936 18.9268 22.9403 19.7402C23.2469 20.2068 23.2469 20.7935 22.9403 21.2602C22.3936 22.0735 21.6603 22.7268 20.7803 23.1668" stroke="#5454D4" stroke-width="2" stroke-linecap="round" stroke-linejoin="round"/>
<path d="M12.5003 29.8332H20.5003C27.167 29.8332 29.8337 27.1665 29.8337 20.4998V12.4998C29.8337 5.83317 27.167 3.1665 20.5003 3.1665H12.5003C5.83366 3.1665 3.16699 5.83317 3.16699 12.4998V20.4998C3.16699 27.1665 5.83366 29.8332 12.5003 29.8332Z" stroke="#5454D4" stroke-width="2" stroke-linecap="round" stroke-linejoin="round"/>
<path d="M3.47363 11.1798L29.1003 11.1665" stroke="#5454D4" stroke-width="2" stroke-linecap="round" stroke-linejoin="round"/>
</svg>
